<svg xmlns="http://www.w3.org/2000/svg" xmlns:xlink="http://www.w3.org/1999/xlink" width="2000" zoomAndPan="magnify" viewBox="0 0 1500 1499.999933" height="2000" preserveAspectRatio="xMidYMid meet" version="1.0"><defs><g/><clipPath id="1f091b7572"><rect x="0" width="205" y="0" height="479"/></clipPath><clipPath id="926429b0b3"><path d="M 600.0625 545 L 635 545 L 635 564 L 600.0625 564 Z M 600.0625 545 " clip-rule="nonzero"/></clipPath><clipPath id="e477b8e67c"><path d="M 773 546 L 808.5625 546 L 808.5625 563 L 773 563 Z M 773 546 " clip-rule="nonzero"/></clipPath><clipPath id="0d16bc60c6"><rect x="0" width="265" y="0" height="479"/></clipPath><clipPath id="76ea2af554"><rect x="0" width="182" y="0" height="479"/></clipPath><clipPath id="6503dac437"><path d="M 945 465 L 1257 465 L 1257 824 L 945 824 Z M 945 465 " clip-rule="nonzero"/></clipPath><clipPath id="c60d5a7a99"><path d="M 1252.492188 465.671875 L 1259.644531 817.351562 L 952.957031 823.585938 L 945.808594 471.910156 Z M 1252.492188 465.671875 " clip-rule="nonzero"/></clipPath><clipPath id="8a4083fe10"><path d="M 1252.363281 459.292969 L 1259.910156 830.464844 L 858.742188 838.621094 L 851.195312 467.449219 Z M 1252.363281 459.292969 " clip-rule="nonzero"/></clipPath><clipPath id="a07e1d272c"><path d="M 1080.820312 773.191406 L 1326.070312 773.191406 L 1326.070312 937 L 1080.820312 937 Z M 1080.820312 773.191406 " clip-rule="nonzero"/></clipPath><clipPath id="54328fde05"><path d="M 1152 929 L 1217 929 L 1217 992.941406 L 1152 992.941406 Z M 1152 929 " clip-rule="nonzero"/></clipPath><clipPath id="36268a1714"><path d="M 906.78125 694.054688 L 1073.226562 694.054688 L 1073.226562 973.507812 L 906.78125 973.507812 Z M 906.78125 694.054688 " clip-rule="nonzero"/></clipPath><clipPath id="cdc145a115"><path d="M 0.78125 0.0546875 L 167.226562 0.0546875 L 167.226562 279.507812 L 0.78125 279.507812 Z M 0.78125 0.0546875 " clip-rule="nonzero"/></clipPath><clipPath id="c9e8faca7d"><rect x="0" width="168" y="0" height="280"/></clipPath><clipPath id="b3ba65274c"><rect x="0" width="265" y="0" height="479"/></clipPath><clipPath id="d3305f7f0f"><path d="M 1163.085938 860.816406 L 1197.550781 860.816406 L 1197.550781 895.28125 L 1163.085938 895.28125 Z M 1163.085938 860.816406 " clip-rule="nonzero"/></clipPath><clipPath id="0c3eb4ed3d"><path d="M 1180.316406 860.816406 C 1170.800781 860.816406 1163.085938 868.53125 1163.085938 878.050781 C 1163.085938 887.566406 1170.800781 895.28125 1180.316406 895.28125 C 1189.835938 895.28125 1197.550781 887.566406 1197.550781 878.050781 C 1197.550781 868.53125 1189.835938 860.816406 1180.316406 860.816406 Z M 1180.316406 860.816406 " clip-rule="nonzero"/></clipPath><clipPath id="ef7640cfbc"><path d="M 0.0859375 0.816406 L 34.550781 0.816406 L 34.550781 35.28125 L 0.0859375 35.28125 Z M 0.0859375 0.816406 " clip-rule="nonzero"/></clipPath><clipPath id="508fd6e7cb"><path d="M 17.316406 0.816406 C 7.800781 0.816406 0.0859375 8.53125 0.0859375 18.050781 C 0.0859375 27.566406 7.800781 35.28125 17.316406 35.28125 C 26.835938 35.28125 34.550781 27.566406 34.550781 18.050781 C 34.550781 8.53125 26.835938 0.816406 17.316406 0.816406 Z M 17.316406 0.816406 " clip-rule="nonzero"/></clipPath><clipPath id="960fff5fdc"><rect x="0" width="35" y="0" height="36"/></clipPath><clipPath id="f129a08761"><path d="M 1211.363281 860.816406 L 1245.832031 860.816406 L 1245.832031 895.28125 L 1211.363281 895.28125 Z M 1211.363281 860.816406 " clip-rule="nonzero"/></clipPath><clipPath id="d65859e79a"><path d="M 1228.597656 860.816406 C 1219.082031 860.816406 1211.363281 868.53125 1211.363281 878.050781 C 1211.363281 887.566406 1219.082031 895.28125 1228.597656 895.28125 C 1238.117188 895.28125 1245.832031 887.566406 1245.832031 878.050781 C 1245.832031 868.53125 1238.117188 860.816406 1228.597656 860.816406 Z M 1228.597656 860.816406 " clip-rule="nonzero"/></clipPath><clipPath id="738ac9295c"><path d="M 0.363281 0.816406 L 34.832031 0.816406 L 34.832031 35.28125 L 0.363281 35.28125 Z M 0.363281 0.816406 " clip-rule="nonzero"/></clipPath><clipPath id="7a77939738"><path d="M 17.597656 0.816406 C 8.082031 0.816406 0.363281 8.53125 0.363281 18.050781 C 0.363281 27.566406 8.082031 35.28125 17.597656 35.28125 C 27.117188 35.28125 34.832031 27.566406 34.832031 18.050781 C 34.832031 8.53125 27.117188 0.816406 17.597656 0.816406 Z M 17.597656 0.816406 " clip-rule="nonzero"/></clipPath><clipPath id="ef71fd2880"><rect x="0" width="35" y="0" height="36"/></clipPath><clipPath id="0481ddff0d"><path d="M 1259.644531 860.816406 L 1294.109375 860.816406 L 1294.109375 895.28125 L 1259.644531 895.28125 Z M 1259.644531 860.816406 " clip-rule="nonzero"/></clipPath><clipPath id="5febc63b8f"><path d="M 1276.878906 860.816406 C 1267.359375 860.816406 1259.644531 868.53125 1259.644531 878.050781 C 1259.644531 887.566406 1267.359375 895.28125 1276.878906 895.28125 C 1286.394531 895.28125 1294.113281 887.566406 1294.113281 878.050781 C 1294.113281 868.53125 1286.394531 860.816406 1276.878906 860.816406 Z M 1276.878906 860.816406 " clip-rule="nonzero"/></clipPath><clipPath id="13ae292c04"><path d="M 0.644531 0.816406 L 35.109375 0.816406 L 35.109375 35.28125 L 0.644531 35.28125 Z M 0.644531 0.816406 " clip-rule="nonzero"/></clipPath><clipPath id="e777e634f2"><path d="M 17.878906 0.816406 C 8.359375 0.816406 0.644531 8.53125 0.644531 18.050781 C 0.644531 27.566406 8.359375 35.28125 17.878906 35.28125 C 27.394531 35.28125 35.113281 27.566406 35.113281 18.050781 C 35.113281 8.53125 27.394531 0.816406 17.878906 0.816406 Z M 17.878906 0.816406 " clip-rule="nonzero"/></clipPath><clipPath id="52875c916f"><rect x="0" width="36" y="0" height="36"/></clipPath><clipPath id="cec1b27932"><path d="M 642 883 L 1067 883 L 1067 1037 L 642 1037 Z M 642 883 " clip-rule="nonzero"/></clipPath><clipPath id="889921d84c"><path d="M 654.863281 883.214844 L 1066.3125 934.585938 L 1053.644531 1036.054688 L 642.195312 984.6875 Z M 654.863281 883.214844 " clip-rule="nonzero"/></clipPath><clipPath id="bae2970c47"><path d="M 0 0.199219 L 424.320312 0.199219 L 424.320312 153.078125 L 0 153.078125 Z M 0 0.199219 " clip-rule="nonzero"/></clipPath><clipPath id="2c19c033c1"><path d="M 12.863281 0.214844 L 424.3125 51.585938 L 411.644531 153.054688 L 0.195312 101.6875 Z M 12.863281 0.214844 " clip-rule="nonzero"/></clipPath><clipPath id="9c61c1e892"><rect x="0" width="425" y="0" height="154"/></clipPath><clipPath id="0c4314e4ce"><rect x="0" width="409" y="0" height="140"/></clipPath><clipPath id="83e54d1273"><rect x="0" width="262" y="0" height="479"/></clipPath></defs><g transform="matrix(1, 0, 0, 1, 257, 506)"><g clip-path="url(#1f091b7572)"><g fill="#fff9f9" fill-opacity="1"><g transform="translate(15.139188, 378.523092)"><g><path d="M 107.960938 14.886719 C 85.332031 14.886719 65.128906 10.628906 47.351562 2.113281 C 28.875 -6.738281 14.4375 -20.011719 4.035156 -37.707031 C -6.195312 -55.117188 -11.3125 -76.550781 -11.3125 -102.007812 L -11.3125 -293.128906 L 116.101562 -293.128906 L 116.101562 -222.671875 L 101.214844 -222.671875 L 101.214844 -237.558594 L 183.972656 -237.558594 L 183.972656 -115.703125 L 101.214844 -115.703125 L 101.214844 -130.585938 L 116.101562 -130.585938 L 116.101562 -97.644531 C 116.101562 -100.03125 115.078125 -102.25 113.03125 -104.296875 C 110.984375 -106.34375 108.765625 -107.367188 106.375 -107.367188 L 183.972656 -107.367188 L 183.972656 14.886719 Z M 107.960938 -14.886719 L 169.089844 -14.886719 L 169.089844 0 L 154.203125 0 L 154.203125 -92.484375 L 169.089844 -92.484375 L 169.089844 -77.597656 L 106.375 -77.597656 C 100.542969 -77.597656 95.746094 -79.480469 91.980469 -83.246094 C 88.210938 -87.011719 86.328125 -91.8125 86.328125 -97.644531 L 86.328125 -145.472656 L 169.089844 -145.472656 L 169.089844 -130.585938 L 154.203125 -130.585938 L 154.203125 -222.671875 L 169.089844 -222.671875 L 169.089844 -207.789062 L 86.328125 -207.789062 L 86.328125 -278.242188 L 101.214844 -278.242188 L 101.214844 -263.355469 L 3.574219 -263.355469 L 3.574219 -278.242188 L 18.457031 -278.242188 L 18.457031 -102.007812 C 18.457031 -81.953125 22.207031 -65.546875 29.703125 -52.792969 C 37.03125 -40.320312 47.203125 -30.96875 60.214844 -24.738281 C 73.925781 -18.167969 89.839844 -14.886719 107.960938 -14.886719 Z M 107.960938 -14.886719 "/></g></g></g><g fill="#171616" fill-opacity="1"><g transform="translate(15.139188, 378.523092)"><g><path d="M 107.96875 0 C 87.59375 0 69.53125 -3.769531 53.78125 -11.3125 C 38.039062 -18.851562 25.738281 -30.164062 16.875 -45.25 C 8.007812 -60.332031 3.578125 -79.253906 3.578125 -102.015625 L 3.578125 -278.25 L 101.21875 -278.25 L 101.21875 -222.671875 L 169.09375 -222.671875 L 169.09375 -130.59375 L 101.21875 -130.59375 L 101.21875 -97.640625 C 101.21875 -94.203125 102.9375 -92.484375 106.375 -92.484375 L 169.09375 -92.484375 L 169.09375 0 Z M 107.96875 0 "/></g></g></g></g></g><path fill="#ef6129" d="M 725.078125 664.039062 L 681.792969 664.039062 L 681.792969 667.742188 C 681.792969 668.3125 681.792969 669.164062 681.792969 670.019531 C 681.792969 670.019531 681.792969 670.304688 681.792969 670.304688 L 725.078125 670.304688 C 725.078125 668.3125 725.078125 666.601562 725.078125 664.609375 C 725.078125 664.324219 725.078125 664.039062 725.078125 664.039062 Z M 725.078125 664.039062 " fill-opacity="1" fill-rule="nonzero"/><path fill="#ef6129" d="M 682.648438 677.425781 C 684.355469 681.695312 688.625 684.828125 694.320312 686.253906 C 694.320312 687.675781 694.890625 689.953125 696.316406 691.949219 C 698.023438 693.65625 700.300781 694.796875 703.148438 694.796875 C 705.996094 694.796875 708.5625 693.941406 709.984375 692.230469 C 711.691406 690.523438 712.261719 688.246094 712.546875 686.820312 C 713.6875 686.535156 714.824219 686.253906 715.964844 685.96875 C 719.382812 684.542969 721.945312 681.980469 723.652344 678.5625 C 724.222656 677.425781 724.507812 676.285156 724.792969 675.144531 L 681.792969 675.144531 C 682.078125 675.429688 682.078125 676.570312 682.648438 677.425781 Z M 702.011719 687.105469 C 702.863281 687.105469 703.433594 687.105469 704.289062 687.105469 L 705.710938 687.105469 C 706.566406 687.105469 707.421875 687.105469 708.277344 687.105469 C 707.992188 687.675781 707.707031 688.246094 707.421875 688.816406 C 706.566406 689.667969 705.429688 690.238281 703.71875 690.238281 C 702.011719 690.238281 700.871094 689.953125 700.300781 689.101562 C 699.734375 688.53125 699.734375 687.960938 699.449219 687.105469 C 700.015625 687.105469 700.871094 687.105469 702.011719 687.105469 Z M 702.011719 687.105469 " fill-opacity="1" fill-rule="nonzero"/><path fill="#ef6129" d="M 681.792969 655.210938 L 681.792969 659.484375 L 725.078125 659.484375 L 725.078125 655.210938 Z M 681.792969 655.210938 " fill-opacity="1" fill-rule="nonzero"/><g clip-path="url(#926429b0b3)"><path fill="#ef6129" d="M 631.671875 554.40625 L 606.613281 545.578125 C 604.335938 544.722656 601.773438 546.148438 600.917969 548.425781 C 600.0625 550.703125 601.488281 553.265625 603.765625 554.121094 L 628.824219 562.949219 C 629.394531 563.234375 629.679688 563.234375 630.25 563.234375 C 632.242188 563.234375 633.953125 562.09375 634.519531 560.101562 C 635.375 557.539062 634.234375 554.972656 631.671875 554.40625 Z M 631.671875 554.40625 " fill-opacity="1" fill-rule="nonzero"/></g><path fill="#ef6129" d="M 649.898438 517.667969 C 650.753906 518.808594 651.890625 519.09375 653.316406 519.09375 C 654.453125 519.09375 655.308594 518.808594 656.164062 517.953125 C 658.15625 516.246094 658.15625 513.398438 656.734375 511.691406 L 639.363281 491.472656 C 637.652344 489.476562 634.804688 489.476562 633.097656 490.902344 C 631.105469 492.609375 631.105469 495.457031 632.527344 497.167969 Z M 649.898438 517.667969 " fill-opacity="1" fill-rule="nonzero"/><path fill="#ef6129" d="M 702.296875 500.582031 C 704.859375 500.582031 706.851562 498.589844 706.851562 496.027344 L 706.566406 469.257812 C 706.566406 466.695312 704.574219 464.703125 702.011719 464.703125 C 699.449219 464.703125 697.453125 466.695312 697.453125 469.257812 L 697.738281 496.027344 C 697.738281 498.589844 699.734375 500.582031 702.296875 500.582031 Z M 702.296875 500.582031 " fill-opacity="1" fill-rule="nonzero"/><path fill="#ef6129" d="M 772.347656 490.617188 C 770.355469 489.191406 767.507812 489.476562 766.082031 491.472656 L 749.851562 512.828125 C 748.429688 514.820312 748.710938 517.667969 750.707031 519.09375 C 751.558594 519.664062 752.414062 519.949219 753.554688 519.949219 C 754.976562 519.949219 756.117188 519.378906 757.253906 518.238281 L 773.488281 496.882812 C 774.625 494.886719 774.339844 492.039062 772.347656 490.617188 Z M 772.347656 490.617188 " fill-opacity="1" fill-rule="nonzero"/><g clip-path="url(#e477b8e67c)"><path fill="#ef6129" d="M 808.230469 550.417969 C 807.660156 548.140625 805.097656 546.429688 802.820312 547 L 776.90625 553.550781 C 774.625 554.121094 772.917969 556.683594 773.488281 558.960938 C 774.058594 560.953125 775.765625 562.378906 777.757812 562.378906 C 778.042969 562.378906 778.613281 562.378906 778.898438 562.378906 L 804.8125 555.828125 C 807.375 555.257812 808.796875 552.980469 808.230469 550.417969 Z M 808.230469 550.417969 " fill-opacity="1" fill-rule="nonzero"/></g><path fill="#ef6129" d="M 704.574219 520.515625 C 672.679688 520.515625 646.480469 546.714844 646.480469 578.609375 C 646.480469 595.125 653.601562 610.789062 665.84375 621.894531 C 665.84375 621.894531 666.128906 622.179688 666.128906 622.179688 C 666.128906 622.179688 670.402344 625.3125 669.832031 630.722656 C 669.832031 631.863281 669.546875 632.714844 669.261719 633.855469 C 668.410156 638.695312 667.554688 644.960938 671.539062 649.515625 L 698.308594 649.515625 C 698.59375 649.230469 705.996094 640.972656 702.011719 621.609375 C 701.726562 619.902344 702.863281 618.191406 704.574219 617.621094 C 706.28125 617.339844 708.277344 618.476562 708.5625 620.1875 C 711.691406 634.992188 708.84375 644.675781 705.996094 649.800781 L 735.328125 649.800781 C 739.601562 645.816406 741.308594 639.835938 739.886719 632.144531 C 738.460938 624.742188 743.871094 621.324219 744.441406 620.753906 C 744.726562 620.472656 745.011719 620.1875 745.296875 619.902344 C 756.402344 608.796875 762.382812 594.273438 762.382812 578.894531 C 762.667969 546.429688 736.46875 520.515625 704.574219 520.515625 Z M 702.582031 560.386719 C 702.296875 560.101562 701.726562 560.101562 701.15625 560.386719 C 695.746094 561.808594 692.613281 555.828125 692.328125 555.542969 C 691.757812 554.40625 690.335938 554.121094 689.195312 554.691406 C 688.058594 555.257812 687.773438 556.683594 688.34375 557.820312 C 689.765625 560.667969 693.753906 565.226562 699.449219 565.226562 C 700.300781 565.226562 701.15625 565.226562 702.296875 564.941406 C 702.296875 564.941406 702.296875 564.941406 702.582031 564.941406 L 702.582031 615.34375 C 700.871094 616.769531 695.460938 620.472656 690.90625 618.476562 C 685.496094 615.914062 685.496094 609.933594 685.496094 609.648438 C 685.496094 609.648438 685.496094 609.363281 685.496094 609.363281 L 692.328125 600.253906 C 693.46875 598.828125 696.03125 600.253906 696.03125 600.253906 C 697.167969 600.820312 698.59375 600.535156 699.164062 599.398438 C 699.734375 598.257812 699.449219 596.835938 698.308594 596.265625 C 696.886719 595.410156 694.605469 594.558594 692.328125 595.125 C 692.042969 592.277344 690.90625 588.863281 688.910156 587.4375 C 688.058594 586.582031 686.632812 586.867188 685.777344 588.007812 C 684.925781 589.144531 685.210938 590.285156 686.347656 591.140625 C 687.488281 591.992188 688.058594 595.695312 688.34375 598.257812 L 681.507812 607.085938 C 681.507812 607.371094 681.222656 607.371094 681.222656 607.65625 C 679.515625 607.65625 676.667969 607.371094 674.671875 603.953125 C 671.824219 598.542969 674.105469 593.417969 674.386719 593.132812 C 674.957031 591.992188 674.386719 590.855469 673.535156 590.285156 C 670.972656 588.863281 668.125 586.296875 668.691406 579.464844 C 668.976562 574.625 673.820312 571.492188 675.527344 570.351562 C 678.089844 570.636719 682.929688 572.058594 685.210938 574.625 C 683.214844 576.046875 682.078125 577.753906 681.222656 579.464844 C 680.652344 580.601562 681.222656 582.027344 682.363281 582.3125 C 682.648438 582.597656 682.929688 582.597656 683.214844 582.597656 C 684.070312 582.597656 684.925781 582.027344 685.210938 581.457031 C 685.496094 580.886719 688.058594 575.761719 693.183594 577.753906 C 694.320312 578.324219 695.746094 577.753906 696.03125 576.617188 C 696.601562 575.476562 696.03125 574.054688 694.890625 573.769531 C 692.898438 572.914062 691.191406 572.914062 689.480469 573.199219 C 686.347656 568.359375 678.660156 566.933594 676.097656 566.363281 C 675.527344 565.511719 674.105469 563.515625 675.8125 558.960938 C 678.089844 552.980469 685.496094 552.410156 685.777344 552.410156 C 686.632812 552.410156 687.488281 551.84375 687.773438 550.988281 C 689.480469 546.714844 692.042969 544.4375 694.605469 543.582031 C 697.738281 542.730469 701.15625 544.4375 702.582031 545.578125 Z M 741.878906 582.3125 C 741.59375 583.449219 741.023438 584.589844 740.167969 586.015625 C 739.601562 586.582031 737.039062 588.007812 734.757812 588.863281 C 733.621094 589.144531 733.050781 590 733.050781 590.855469 C 733.050781 591.992188 733.90625 593.132812 734.472656 594.273438 C 735.042969 595.125 735.613281 595.980469 735.898438 596.550781 C 736.46875 599.113281 735.898438 601.960938 734.472656 603.953125 C 733.335938 605.664062 731.34375 606.515625 729.347656 606.800781 C 728.777344 606.800781 728.496094 606.800781 728.210938 606.800781 C 727.925781 604.238281 726.785156 600.820312 723.652344 598.542969 C 724.507812 597.121094 725.363281 595.695312 726.214844 593.703125 C 726.785156 592.5625 726.214844 591.140625 725.078125 590.855469 C 723.9375 590.285156 722.515625 590.855469 722.230469 591.992188 C 719.382812 598.257812 717.105469 599.683594 715.679688 600.253906 C 714.539062 600.535156 713.972656 600.253906 713.6875 600.253906 C 712.546875 599.683594 711.410156 599.96875 710.554688 601.105469 C 709.984375 602.246094 710.269531 603.667969 711.410156 604.238281 C 711.691406 604.238281 712.832031 605.09375 714.539062 605.09375 C 715.109375 605.09375 715.964844 605.09375 716.820312 604.808594 C 718.242188 604.238281 719.382812 603.382812 720.804688 602.246094 C 724.222656 604.523438 723.9375 608.226562 723.9375 608.796875 C 723.9375 609.078125 723.9375 609.363281 723.9375 609.363281 C 723.367188 610.21875 723.082031 611.074219 722.515625 611.925781 C 721.089844 614.492188 720.519531 616.199219 717.671875 617.339844 C 713.402344 619.332031 709.128906 616.199219 707.421875 615.058594 L 707.421875 585.160156 C 710.269531 589.144531 713.402344 591.140625 717.105469 591.140625 C 717.386719 591.140625 717.386719 591.140625 717.671875 591.140625 C 718.527344 591.140625 719.097656 590.570312 719.382812 590 C 719.667969 589.429688 719.953125 588.578125 719.382812 588.007812 C 719.382812 588.007812 716.535156 581.457031 719.097656 577.753906 C 719.953125 576.617188 719.667969 575.476562 718.527344 574.625 C 717.386719 573.769531 716.25 574.054688 715.394531 575.191406 C 712.832031 578.609375 713.117188 582.882812 713.972656 586.015625 C 710.839844 584.304688 709.128906 580.035156 708.277344 578.324219 L 707.992188 577.753906 C 707.707031 576.902344 707.421875 576.617188 707.136719 576.617188 L 707.136719 544.4375 C 711.125 539.882812 716.535156 542.445312 716.820312 542.730469 C 720.234375 545.007812 721.089844 547.570312 720.234375 550.988281 C 719.953125 552.125 720.519531 553.265625 721.375 553.550781 C 722.230469 554.121094 723.652344 553.835938 724.222656 552.980469 C 724.792969 552.125 725.929688 551.84375 726.785156 551.84375 C 729.917969 552.125 733.335938 555.828125 734.191406 558.960938 C 734.472656 560.101562 734.472656 564.085938 734.191406 566.082031 C 731.625 565.511719 728.210938 565.511719 725.648438 567.21875 C 723.082031 564.65625 719.953125 563.800781 719.667969 563.515625 C 718.527344 563.234375 717.105469 563.800781 716.820312 564.941406 C 716.535156 566.082031 717.105469 567.503906 718.242188 567.789062 C 718.242188 567.789062 721.660156 568.929688 723.652344 571.777344 C 724.507812 572.914062 724.792969 574.054688 725.078125 575.191406 C 725.078125 576.332031 726.214844 577.1875 727.355469 577.1875 C 727.355469 577.1875 727.355469 577.1875 727.640625 577.1875 C 728.777344 577.1875 729.917969 576.046875 729.632812 574.90625 C 729.632812 573.484375 729.0625 572.058594 728.496094 570.636719 C 730.203125 569.78125 733.050781 570.066406 734.191406 570.636719 C 735.328125 571.492188 738.175781 574.339844 738.460938 574.625 C 741.308594 577.753906 742.449219 580.035156 741.878906 582.3125 Z M 741.878906 582.3125 " fill-opacity="1" fill-rule="nonzero"/><g transform="matrix(1, 0, 0, 1, 403, 514)"><g clip-path="url(#0d16bc60c6)"><g fill="#fff9f9" fill-opacity="1"><g transform="translate(14.834409, 378.511646)"><g><path d="M 123.0625 -113.488281 C 124.742188 -114.40625 125.679688 -115.390625 125.875 -116.441406 C 126.121094 -117.765625 125.816406 -118.988281 124.953125 -120.105469 C 124.839844 -120.25 124.589844 -120.398438 124.195312 -120.554688 C 123.003906 -121.023438 121.296875 -121.257812 119.078125 -121.257812 L 118.789062 -121.257812 L 118.503906 -121.269531 C 116.371094 -121.351562 115.074219 -121.132812 114.621094 -120.613281 C 113.402344 -119.210938 112.765625 -117.582031 112.722656 -115.738281 C 112.675781 -113.863281 113.214844 -112.210938 114.335938 -110.777344 C 114.355469 -110.75 114.441406 -110.707031 114.59375 -110.644531 C 115.414062 -110.3125 116.644531 -110.148438 118.28125 -110.148438 L 245.496094 -110.148438 L 245.496094 14.886719 L 118.28125 14.886719 C 100.351562 14.886719 83.5625 11.5 67.917969 4.730469 C 52.417969 -1.976562 38.707031 -11.289062 26.785156 -23.210938 C 14.863281 -35.136719 5.546875 -48.847656 -1.160156 -64.34375 C -7.929688 -79.988281 -11.3125 -96.777344 -11.3125 -114.710938 C -11.3125 -138.148438 -6.007812 -159.578125 4.597656 -179 C 15.277344 -198.558594 30.433594 -214.253906 50.066406 -226.09375 C 69.710938 -237.941406 92.792969 -244.011719 119.308594 -244.304688 C 132.785156 -244.304688 146.269531 -243.027344 159.753906 -240.472656 C 174.042969 -237.765625 187.5 -232.65625 200.121094 -225.144531 C 213.480469 -217.191406 224.511719 -205.601562 233.214844 -190.367188 C 237.214844 -183.367188 240.097656 -175.214844 241.863281 -165.910156 C 243.539062 -157.074219 244.148438 -148.035156 243.691406 -138.785156 C 243.210938 -128.992188 241.183594 -119.792969 237.613281 -111.1875 C 233.523438 -101.34375 227.15625 -93.597656 218.5 -87.953125 L 214.792969 -85.535156 L 130.191406 -85.535156 Z M 137.316406 -87.351562 L 130.191406 -100.421875 L 130.191406 -115.304688 L 210.367188 -115.304688 L 210.367188 -100.421875 L 202.238281 -112.890625 C 205.753906 -115.183594 208.378906 -118.421875 210.117188 -122.601562 C 212.363281 -128.019531 213.644531 -133.902344 213.957031 -140.25 C 214.296875 -147.140625 213.847656 -153.847656 212.613281 -160.359375 C 211.46875 -166.402344 209.71875 -171.480469 207.367188 -175.59375 C 201.253906 -186.292969 193.761719 -194.28125 184.894531 -199.5625 C 175.285156 -205.28125 165.058594 -209.167969 154.210938 -211.222656 C 142.558594 -213.429688 131.035156 -214.535156 119.640625 -214.535156 C 98.523438 -214.300781 80.457031 -209.65625 65.4375 -200.597656 C 50.40625 -191.53125 38.835938 -179.578125 30.726562 -164.730469 C 22.546875 -149.753906 18.457031 -133.082031 18.457031 -114.710938 C 18.457031 -100.886719 21.027344 -88.039062 26.164062 -76.167969 C 31.367188 -64.144531 38.589844 -53.507812 47.835938 -44.265625 C 57.082031 -35.019531 67.714844 -27.792969 79.738281 -22.59375 C 91.613281 -17.453125 104.460938 -14.886719 118.28125 -14.886719 L 230.609375 -14.886719 L 230.609375 0 L 215.726562 0 L 215.726562 -95.261719 L 230.609375 -95.261719 L 230.609375 -80.375 L 118.28125 -80.375 C 106.296875 -80.375 97.160156 -84.398438 90.875 -92.449219 C 85.378906 -99.480469 82.742188 -107.484375 82.960938 -116.460938 C 83.179688 -125.464844 86.25 -133.363281 92.171875 -140.164062 C 98.863281 -147.847656 108.023438 -151.464844 119.648438 -151.019531 L 119.078125 -136.144531 L 119.078125 -151.03125 C 132.15625 -151.03125 141.972656 -146.78125 148.527344 -138.289062 C 154.808594 -130.144531 157.015625 -121.046875 155.144531 -110.996094 C 153.222656 -100.667969 147.28125 -92.789062 137.316406 -87.351562 Z M 137.316406 -87.351562 "/></g></g></g><g fill="#171616" fill-opacity="1"><g transform="translate(14.834409, 378.511646)"><g><path d="M 130.1875 -100.421875 C 136.007812 -103.597656 139.445312 -108.03125 140.5 -113.71875 C 141.5625 -119.40625 140.304688 -124.5625 136.734375 -129.1875 C 133.160156 -133.820312 127.273438 -136.140625 119.078125 -136.140625 C 112.191406 -136.410156 106.960938 -134.492188 103.390625 -130.390625 C 99.828125 -126.285156 97.976562 -121.519531 97.84375 -116.09375 C 97.707031 -110.675781 99.289062 -105.847656 102.59375 -101.609375 C 105.90625 -97.378906 111.132812 -95.265625 118.28125 -95.265625 L 230.609375 -95.265625 L 230.609375 0 L 118.28125 0 C 102.40625 0 87.585938 -2.972656 73.828125 -8.921875 C 60.066406 -14.878906 47.894531 -23.148438 37.3125 -33.734375 C 26.726562 -44.316406 18.457031 -56.488281 12.5 -70.25 C 6.550781 -84.007812 3.578125 -98.828125 3.578125 -114.703125 C 3.578125 -135.609375 8.269531 -154.660156 17.65625 -171.859375 C 27.050781 -189.066406 40.414062 -202.894531 57.75 -213.34375 C 75.082031 -223.800781 95.65625 -229.160156 119.46875 -229.421875 C 131.90625 -229.421875 144.410156 -228.226562 156.984375 -225.84375 C 169.554688 -223.46875 181.394531 -218.972656 192.5 -212.359375 C 203.613281 -205.742188 212.878906 -195.953125 220.296875 -182.984375 C 223.472656 -177.421875 225.785156 -170.800781 227.234375 -163.125 C 228.691406 -155.457031 229.222656 -147.585938 228.828125 -139.515625 C 228.429688 -131.441406 226.773438 -123.898438 223.859375 -116.890625 C 220.953125 -109.878906 216.457031 -104.390625 210.375 -100.421875 Z M 130.1875 -100.421875 "/></g></g></g></g></g><g transform="matrix(1, 0, 0, 1, 597, 514)"><g clip-path="url(#76ea2af554)"><g fill="#fff9f9" fill-opacity="1"><g transform="translate(14.234295, 378.511646)"><g><path d="M -11.3125 54.773438 L -11.3125 -53.785156 L 41.28125 -53.785156 C 39.152344 -53.785156 37.132812 -52.828125 35.21875 -50.914062 C 33.304688 -49 32.347656 -46.976562 32.347656 -44.851562 L 32.347656 -237.558594 L 159.761719 -237.558594 L 159.761719 -48.425781 C 159.761719 -25.109375 154.589844 -4.558594 144.25 13.234375 C 133.851562 31.125 119.488281 45.035156 101.160156 54.964844 C 83.070312 64.761719 62.316406 69.660156 38.898438 69.660156 L -11.3125 69.660156 Z M 18.457031 54.773438 L 3.574219 54.773438 L 3.574219 39.890625 L 38.898438 39.890625 C 57.289062 39.890625 73.316406 36.1875 86.980469 28.785156 C 100.40625 21.515625 110.914062 11.34375 118.511719 -1.722656 C 126.164062 -14.890625 129.992188 -30.457031 129.992188 -48.425781 L 129.992188 -222.671875 L 144.875 -222.671875 L 144.875 -207.789062 L 47.234375 -207.789062 L 47.234375 -222.671875 L 62.117188 -222.671875 L 62.117188 -44.851562 C 62.117188 -38.757812 60.167969 -33.761719 56.269531 -29.859375 C 52.371094 -25.960938 47.375 -24.011719 41.28125 -24.011719 L 3.574219 -24.011719 L 3.574219 -38.898438 L 18.457031 -38.898438 Z M 18.457031 54.773438 "/></g></g></g><g fill="#171616" fill-opacity="1"><g transform="translate(14.234295, 378.511646)"><g><path d="M 3.578125 54.78125 L 3.578125 -38.890625 L 41.28125 -38.890625 C 45.25 -38.890625 47.234375 -40.878906 47.234375 -44.859375 L 47.234375 -222.671875 L 144.875 -222.671875 L 144.875 -48.421875 C 144.875 -27.785156 140.375 -9.726562 131.375 5.75 C 122.382812 21.226562 109.945312 33.269531 94.0625 41.875 C 78.1875 50.476562 59.796875 54.78125 38.890625 54.78125 Z M 3.578125 54.78125 "/></g></g></g></g></g><g clip-path="url(#6503dac437)"><g clip-path="url(#c60d5a7a99)"><g clip-path="url(#8a4083fe10)"><path fill="#171616" d="M 955.738281 829.933594 C 946.03125 829.054688 933.421875 826.441406 933.421875 826.441406 C 933.421875 826.441406 942.703125 824.101562 955.621094 824.140625 C 968.535156 824.183594 974.6875 809.097656 995.578125 812.980469 C 1016.464844 816.859375 1024.867188 806.644531 1012.285156 805.464844 C 999.707031 804.285156 992.488281 784.699219 979.984375 781.363281 C 967.480469 778.03125 954.886719 787.972656 941.609375 787.882812 C 928.332031 787.796875 913.453125 779.503906 913.453125 779.503906 C 932.496094 780.925781 941.703125 780.707031 957.324219 772.734375 C 972.949219 764.761719 985.585938 774.550781 999.992188 777.128906 C 1014.394531 779.707031 1028.582031 771.765625 1027.453125 763.175781 C 1026.320312 754.589844 990.820312 749.570312 973.75 757.09375 C 956.683594 764.617188 943.257812 739.535156 915.65625 746.792969 C 888.058594 754.050781 866.269531 741.101562 866.269531 741.101562 C 866.269531 741.101562 894.109375 745.796875 910.644531 735.441406 C 927.175781 725.085938 945.558594 735.183594 963.808594 738.640625 C 982.058594 742.09375 995.449219 718.382812 1010.914062 726.199219 C 1026.382812 734.019531 1037.589844 730.941406 1048.140625 733.695312 C 1076.289062 741.042969 1099.488281 740.484375 1102.488281 740.378906 C 1143.988281 737.660156 1176.511719 702.613281 1175.660156 660.617188 C 1174.78125 617.425781 1138.925781 583 1095.734375 583.878906 L 1050.882812 584.789062 L 1051.710938 625.488281 L 954.75 548.542969 L 1048.414062 463.441406 L 1049.242188 504.136719 L 1094.09375 503.226562 C 1181.757812 501.445312 1254.527344 571.3125 1256.3125 658.980469 C 1258.09375 746.644531 1188.222656 819.414062 1100.558594 821.195312 L 1086.164062 821.488281 C 1071.769531 821.78125 1064.023438 826.65625 1036.132812 831.167969 C 1008.238281 835.683594 1007.996094 823.847656 993.277344 823.375 C 978.558594 822.902344 965.445312 830.8125 955.738281 829.933594 Z M 898.375 815.992188 C 891.75 814.726562 869.101562 821.585938 869.101562 821.585938 C 869.101562 821.585938 879.160156 824.578125 890.972656 825.492188 C 902.785156 826.40625 913.082031 821.691406 913.082031 821.691406 C 913.082031 821.691406 904.996094 817.257812 898.375 815.992188 Z M 875.980469 777.976562 C 868.394531 777.917969 858.023438 782.613281 858.023438 782.613281 C 858.023438 782.613281 875.183594 786.109375 880.113281 786.863281 C 885.042969 787.621094 894.140625 783.375 894.140625 783.375 C 894.140625 783.375 883.566406 778.035156 875.980469 777.976562 Z M 875.980469 777.976562 " fill-opacity="1" fill-rule="nonzero"/></g></g></g><g clip-path="url(#a07e1d272c)"><path fill="#00541a" d="M 1326.164062 885.796875 C 1326.164062 914.039062 1303.269531 936.910156 1275.046875 936.910156 L 1131.925781 936.910156 C 1103.707031 936.910156 1080.820312 914.03125 1080.820312 885.796875 L 1080.820312 824.457031 C 1080.820312 796.246094 1103.707031 773.363281 1131.925781 773.363281 L 1275.042969 773.363281 C 1303.269531 773.363281 1326.144531 796.246094 1326.144531 824.457031 L 1326.144531 885.796875 Z M 1326.164062 885.796875 " fill-opacity="1" fill-rule="nonzero"/></g><g clip-path="url(#54328fde05)"><path fill="#00541a" d="M 1152.382812 930.101562 L 1152.382812 993.132812 L 1216.257812 929.242188 Z M 1152.382812 930.101562 " fill-opacity="1" fill-rule="nonzero"/></g><g clip-path="url(#36268a1714)"><g transform="matrix(1, 0, 0, 1, 906, 694)"><g clip-path="url(#c9e8faca7d)"><g clip-path="url(#cdc145a115)"><path fill="#ffffff" d="M 0.78125 0.0546875 L 167.226562 0.0546875 L 167.226562 279.628906 L 0.78125 279.628906 Z M 0.78125 0.0546875 " fill-opacity="1" fill-rule="nonzero"/></g></g></g></g><g transform="matrix(1, 0, 0, 1, 714, 514)"><g clip-path="url(#b3ba65274c)"><g fill="#fff9f9" fill-opacity="1"><g transform="translate(13.399014, 378.511646)"><g><path d="M 118.679688 -244.304688 C 136.609375 -244.304688 153.398438 -240.921875 169.046875 -234.152344 C 184.515625 -227.457031 198.203125 -218.230469 210.109375 -206.472656 C 222.078125 -194.65625 231.421875 -180.90625 238.140625 -165.226562 C 244.898438 -149.464844 248.273438 -132.625 248.273438 -114.710938 L 248.273438 14.886719 L 123.242188 14.886719 L 123.242188 -114.710938 C 123.242188 -115.988281 122.71875 -117.171875 121.671875 -118.257812 C 120.757812 -119.199219 119.761719 -119.671875 118.679688 -119.671875 C 117.332031 -119.671875 116.203125 -119.199219 115.292969 -118.257812 C 114.242188 -117.171875 113.71875 -115.988281 113.71875 -114.710938 C 113.71875 -113.429688 114.242188 -112.25 115.292969 -111.164062 C 116.203125 -110.222656 117.332031 -109.75 118.679688 -109.75 L 147.457031 -109.75 L 147.457031 14.886719 L 118.679688 14.886719 C 100.765625 14.886719 83.925781 11.507812 68.164062 4.75 C 52.484375 -1.96875 38.734375 -11.3125 26.917969 -23.277344 C 15.15625 -35.1875 5.929688 -48.875 -0.761719 -64.34375 C -7.53125 -79.988281 -10.917969 -96.777344 -10.917969 -114.710938 C -10.917969 -132.625 -7.539062 -149.464844 -0.78125 -165.226562 C 5.925781 -180.875 15.179688 -194.601562 26.984375 -206.40625 C 38.785156 -218.210938 52.511719 -227.464844 68.164062 -234.171875 C 83.925781 -240.929688 100.765625 -244.304688 118.679688 -244.304688 Z M 118.679688 -214.535156 C 104.839844 -214.535156 91.910156 -211.960938 79.890625 -206.808594 C 67.753906 -201.605469 57.136719 -194.457031 48.035156 -185.355469 C 38.933594 -176.253906 31.78125 -165.636719 26.582031 -153.5 C 21.429688 -141.480469 18.855469 -128.550781 18.855469 -114.710938 C 18.855469 -100.886719 21.421875 -88.039062 26.5625 -76.167969 C 31.777344 -64.113281 38.957031 -53.457031 48.101562 -44.199219 C 57.1875 -34.996094 67.785156 -27.800781 79.890625 -22.613281 C 91.910156 -17.460938 104.839844 -14.886719 118.679688 -14.886719 L 132.570312 -14.886719 L 132.570312 0 L 117.6875 0 L 117.6875 -94.863281 L 132.570312 -94.863281 L 132.570312 -79.980469 L 118.679688 -79.980469 C 108.914062 -79.980469 100.648438 -83.476562 93.886719 -90.472656 C 87.261719 -97.328125 83.949219 -105.40625 83.949219 -114.710938 C 83.949219 -124.015625 87.261719 -132.09375 93.886719 -138.949219 C 100.648438 -145.945312 108.914062 -149.441406 118.679688 -149.441406 C 128.179688 -149.441406 136.3125 -145.945312 143.074219 -138.949219 C 149.703125 -132.09375 153.015625 -124.015625 153.015625 -114.710938 L 153.015625 0 L 138.128906 0 L 138.128906 -14.886719 L 233.390625 -14.886719 L 233.390625 0 L 218.503906 0 L 218.503906 -114.710938 C 218.503906 -128.550781 215.929688 -141.480469 210.777344 -153.5 C 205.589844 -165.605469 198.394531 -176.203125 189.191406 -185.289062 C 179.933594 -194.433594 169.277344 -201.613281 157.222656 -206.828125 C 145.347656 -211.964844 132.5 -214.535156 118.679688 -214.535156 Z M 118.679688 -214.535156 "/></g></g></g><g fill="#171616" fill-opacity="1"><g transform="translate(13.399014, 378.511646)"><g><path d="M 118.671875 -229.421875 C 134.554688 -229.421875 149.378906 -226.441406 163.140625 -220.484375 C 176.898438 -214.535156 189.070312 -206.332031 199.65625 -195.875 C 210.238281 -185.425781 218.503906 -173.253906 224.453125 -159.359375 C 230.410156 -145.472656 233.390625 -130.585938 233.390625 -114.703125 L 233.390625 0 L 138.125 0 L 138.125 -114.703125 C 138.125 -120.003906 136.207031 -124.640625 132.375 -128.609375 C 128.539062 -132.578125 123.972656 -134.5625 118.671875 -134.5625 C 113.117188 -134.5625 108.421875 -132.578125 104.578125 -128.609375 C 100.742188 -124.640625 98.828125 -120.003906 98.828125 -114.703125 C 98.828125 -109.410156 100.742188 -104.78125 104.578125 -100.8125 C 108.421875 -96.84375 113.117188 -94.859375 118.671875 -94.859375 L 132.578125 -94.859375 L 132.578125 0 L 118.671875 0 C 102.796875 0 87.910156 -2.972656 74.015625 -8.921875 C 60.128906 -14.878906 47.957031 -23.148438 37.5 -33.734375 C 27.050781 -44.316406 18.847656 -56.488281 12.890625 -70.25 C 6.941406 -84.007812 3.96875 -98.828125 3.96875 -114.703125 C 3.96875 -130.585938 6.941406 -145.472656 12.890625 -159.359375 C 18.847656 -173.253906 27.050781 -185.425781 37.5 -195.875 C 47.957031 -206.332031 60.128906 -214.535156 74.015625 -220.484375 C 87.910156 -226.441406 102.796875 -229.421875 118.671875 -229.421875 Z M 118.671875 -229.421875 "/></g></g></g></g></g><g clip-path="url(#d3305f7f0f)"><g clip-path="url(#0c3eb4ed3d)"><g transform="matrix(1, 0, 0, 1, 1163, 860)"><g clip-path="url(#960fff5fdc)"><g clip-path="url(#ef7640cfbc)"><g clip-path="url(#508fd6e7cb)"><path fill="#ffffff" d="M 0.0859375 0.816406 L 34.550781 0.816406 L 34.550781 35.28125 L 0.0859375 35.28125 Z M 0.0859375 0.816406 " fill-opacity="1" fill-rule="nonzero"/></g></g></g></g></g></g><g clip-path="url(#f129a08761)"><g clip-path="url(#d65859e79a)"><g transform="matrix(1, 0, 0, 1, 1211, 860)"><g clip-path="url(#ef71fd2880)"><g clip-path="url(#738ac9295c)"><g clip-path="url(#7a77939738)"><path fill="#ffffff" d="M 0.363281 0.816406 L 34.832031 0.816406 L 34.832031 35.28125 L 0.363281 35.28125 Z M 0.363281 0.816406 " fill-opacity="1" fill-rule="nonzero"/></g></g></g></g></g></g><g clip-path="url(#0481ddff0d)"><g clip-path="url(#5febc63b8f)"><g transform="matrix(1, 0, 0, 1, 1259, 860)"><g clip-path="url(#52875c916f)"><g clip-path="url(#13ae292c04)"><g clip-path="url(#e777e634f2)"><path fill="#ffffff" d="M 0.644531 0.816406 L 35.113281 0.816406 L 35.113281 35.28125 L 0.644531 35.28125 Z M 0.644531 0.816406 " fill-opacity="1" fill-rule="nonzero"/></g></g></g></g></g></g><g clip-path="url(#cec1b27932)"><g clip-path="url(#889921d84c)"><g transform="matrix(1, 0, 0, 1, 642, 883)"><g clip-path="url(#9c61c1e892)"><g clip-path="url(#bae2970c47)"><g clip-path="url(#2c19c033c1)"><path fill="#7f2ef5" d="M 12.863281 0.214844 L 424.300781 51.582031 L 411.632812 153.054688 L 0.195312 101.6875 Z M 12.863281 0.214844 " fill-opacity="1" fill-rule="nonzero"/></g></g></g></g></g></g><g transform="matrix(1, 0, 0, 1, 652, 898)"><g clip-path="url(#0c4314e4ce)"><g fill="#ffffff" fill-opacity="1"><g transform="translate(4.722613, 64.109428)"><g><path d="M 36.484375 -7.53125 C 38.492188 -7.28125 40.484375 -7.335938 42.453125 -7.703125 C 44.421875 -8.078125 45.882812 -8.488281 46.84375 -8.9375 L 48.3125 -9.6875 L 52.5 2.234375 C 52.289062 2.359375 52.007812 2.515625 51.65625 2.703125 C 51.300781 2.898438 50.484375 3.238281 49.203125 3.71875 C 47.929688 4.195312 46.585938 4.582031 45.171875 4.875 C 43.765625 5.175781 41.941406 5.375 39.703125 5.46875 C 37.460938 5.570312 35.171875 5.476562 32.828125 5.1875 C 27.460938 4.507812 22.535156 2.550781 18.046875 -0.6875 C 13.554688 -3.9375 10.128906 -8.0625 7.765625 -13.0625 C 5.398438 -18.0625 4.550781 -23.25 5.21875 -28.625 C 5.726562 -32.675781 7.085938 -36.460938 9.296875 -39.984375 C 11.503906 -43.515625 14.207031 -46.429688 17.40625 -48.734375 C 20.613281 -51.046875 24.234375 -52.753906 28.265625 -53.859375 C 32.296875 -54.960938 36.320312 -55.257812 40.34375 -54.75 C 44.09375 -54.28125 47.488281 -53.40625 50.53125 -52.125 C 53.570312 -50.84375 55.691406 -49.675781 56.890625 -48.625 L 58.6875 -47.0625 L 51.671875 -36.546875 C 51.378906 -36.867188 50.925781 -37.269531 50.3125 -37.75 C 49.707031 -38.226562 48.460938 -38.914062 46.578125 -39.8125 C 44.703125 -40.71875 42.757812 -41.296875 40.75 -41.546875 C 37.570312 -41.941406 34.65625 -41.78125 32 -41.0625 C 29.351562 -40.351562 27.1875 -39.25 25.5 -37.75 C 23.820312 -36.257812 22.472656 -34.585938 21.453125 -32.734375 C 20.441406 -30.890625 19.8125 -28.960938 19.5625 -26.953125 C 19.007812 -22.566406 20.160156 -18.425781 23.015625 -14.53125 C 25.867188 -10.632812 30.359375 -8.300781 36.484375 -7.53125 Z M 36.484375 -7.53125 "/></g></g></g><g fill="#ffffff" fill-opacity="1"><g transform="translate(61.734845, 71.263815)"><g><path d="M 5.25 -28.75 C 6.289062 -37.125 10.03125 -43.847656 16.46875 -48.921875 C 22.90625 -54.003906 30.144531 -56.039062 38.1875 -55.03125 C 46.257812 -54.007812 52.765625 -50.257812 57.703125 -43.78125 C 62.640625 -37.300781 64.582031 -29.851562 63.53125 -21.4375 C 62.46875 -12.976562 58.789062 -6.210938 52.5 -1.140625 C 46.207031 3.929688 38.929688 5.945312 30.671875 4.90625 C 22.203125 3.84375 15.578125 0.109375 10.796875 -6.296875 C 6.015625 -12.710938 4.164062 -20.195312 5.25 -28.75 Z M 19.484375 -26.96875 C 19.097656 -23.9375 19.21875 -21.109375 19.84375 -18.484375 C 20.46875 -15.867188 21.835938 -13.546875 23.953125 -11.515625 C 26.066406 -9.492188 28.835938 -8.269531 32.265625 -7.84375 C 37.171875 -7.226562 41.082031 -8.445312 44 -11.5 C 46.914062 -14.550781 48.675781 -18.457031 49.28125 -23.21875 C 49.863281 -27.945312 49.09375 -32.164062 46.96875 -35.875 C 44.851562 -39.59375 41.394531 -41.753906 36.59375 -42.359375 C 31.8125 -42.953125 27.910156 -41.71875 24.890625 -38.65625 C 21.867188 -35.59375 20.066406 -31.695312 19.484375 -26.96875 Z M 19.484375 -26.96875 "/></g></g></g><g fill="#ffffff" fill-opacity="1"><g transform="translate(127.442659, 79.5094)"><g><path d="M 21.890625 -33.71875 L 17.390625 2.1875 L 4.203125 0.53125 L 11.46875 -57.3125 L 24.65625 -55.65625 L 43.140625 -16.890625 L 43.28125 -16.875 L 47.796875 -52.765625 L 60.984375 -51.109375 L 53.71875 6.734375 L 40.53125 5.078125 L 22.03125 -33.703125 Z M 21.890625 -33.71875 "/></g></g></g><g fill="#ffffff" fill-opacity="1"><g transform="translate(189.574068, 87.306186)"><g><path d="M 21.890625 -33.71875 L 17.390625 2.1875 L 4.203125 0.53125 L 11.46875 -57.3125 L 24.65625 -55.65625 L 43.140625 -16.890625 L 43.28125 -16.875 L 47.796875 -52.765625 L 60.984375 -51.109375 L 53.71875 6.734375 L 40.53125 5.078125 L 22.03125 -33.703125 Z M 21.890625 -33.71875 "/></g></g></g><g fill="#ffffff" fill-opacity="1"><g transform="translate(251.705477, 95.102972)"><g><path d="M 44.5625 -53.15625 L 43.109375 -41.59375 L 23.203125 -44.09375 L 21.75 -32.59375 L 40.828125 -30.203125 L 39.375 -18.625 L 20.296875 -21.015625 L 18.84375 -9.375 L 38.75 -6.875 L 37.296875 4.6875 L 4.203125 0.53125 L 11.46875 -57.3125 Z M 44.5625 -53.15625 "/></g></g></g><g fill="#ffffff" fill-opacity="1"><g transform="translate(296.586055, 100.734975)"><g><path d="M 36.484375 -7.53125 C 38.492188 -7.28125 40.484375 -7.335938 42.453125 -7.703125 C 44.421875 -8.078125 45.882812 -8.488281 46.84375 -8.9375 L 48.3125 -9.6875 L 52.5 2.234375 C 52.289062 2.359375 52.007812 2.515625 51.65625 2.703125 C 51.300781 2.898438 50.484375 3.238281 49.203125 3.71875 C 47.929688 4.195312 46.585938 4.582031 45.171875 4.875 C 43.765625 5.175781 41.941406 5.375 39.703125 5.46875 C 37.460938 5.570312 35.171875 5.476562 32.828125 5.1875 C 27.460938 4.507812 22.535156 2.550781 18.046875 -0.6875 C 13.554688 -3.9375 10.128906 -8.0625 7.765625 -13.0625 C 5.398438 -18.0625 4.550781 -23.25 5.21875 -28.625 C 5.726562 -32.675781 7.085938 -36.460938 9.296875 -39.984375 C 11.503906 -43.515625 14.207031 -46.429688 17.40625 -48.734375 C 20.613281 -51.046875 24.234375 -52.753906 28.265625 -53.859375 C 32.296875 -54.960938 36.320312 -55.257812 40.34375 -54.75 C 44.09375 -54.28125 47.488281 -53.40625 50.53125 -52.125 C 53.570312 -50.84375 55.691406 -49.675781 56.890625 -48.625 L 58.6875 -47.0625 L 51.671875 -36.546875 C 51.378906 -36.867188 50.925781 -37.269531 50.3125 -37.75 C 49.707031 -38.226562 48.460938 -38.914062 46.578125 -39.8125 C 44.703125 -40.71875 42.757812 -41.296875 40.75 -41.546875 C 37.570312 -41.941406 34.65625 -41.78125 32 -41.0625 C 29.351562 -40.351562 27.1875 -39.25 25.5 -37.75 C 23.820312 -36.257812 22.472656 -34.585938 21.453125 -32.734375 C 20.441406 -30.890625 19.8125 -28.960938 19.5625 -26.953125 C 19.007812 -22.566406 20.160156 -18.425781 23.015625 -14.53125 C 25.867188 -10.632812 30.359375 -8.300781 36.484375 -7.53125 Z M 36.484375 -7.53125 "/></g></g></g><g fill="#ffffff" fill-opacity="1"><g transform="translate(353.598288, 107.889363)"><g><path d="M 6.375 -46.21875 L 7.828125 -57.78125 L 48.5 -52.671875 L 47.046875 -41.109375 L 33.296875 -42.828125 L 27.484375 3.453125 L 14.3125 1.796875 L 20.125 -44.484375 Z M 6.375 -46.21875 "/></g></g></g></g></g><g transform="matrix(1, 0, 0, 1, 895, 514)"><g clip-path="url(#83e54d1273)"><g fill="#fff9f9" fill-opacity="1"><g transform="translate(13.766752, 378.511646)"><g><path d="M -11.3125 0 L -11.3125 -107.367188 L 51.203125 -107.367188 L 51.203125 -92.484375 L 37.890625 -85.824219 C 37.707031 -86.1875 37.511719 -86.515625 37.304688 -86.808594 C 36.550781 -87.863281 35.863281 -88.855469 35.246094 -89.78125 L 47.628906 -98.039062 L 47.628906 -83.152344 L 12.890625 -83.152344 L 8.445312 -89.503906 C -2.496094 -105.136719 -8.285156 -121.691406 -8.921875 -139.175781 C -9.546875 -156.359375 -6.335938 -171.675781 0.707031 -185.125 C 8.539062 -200.164062 18.671875 -211.640625 31.105469 -219.554688 C 43.019531 -227.132812 56.535156 -232.144531 71.652344 -234.589844 C 85.535156 -236.832031 100.417969 -237.957031 116.296875 -237.957031 L 244.304688 -237.957031 L 244.304688 -118.480469 L 116.296875 -118.480469 C 113.5625 -118.480469 111.632812 -117.738281 110.507812 -116.25 C 109.007812 -114.265625 108.414062 -112.351562 108.734375 -110.511719 L 94.070312 -107.960938 L 108.601562 -111.191406 C 109.050781 -109.160156 110.222656 -107.167969 112.117188 -105.210938 C 113.027344 -104.265625 114.6875 -103.796875 117.089844 -103.796875 C 119.71875 -103.796875 121.28125 -104.167969 121.773438 -104.90625 C 123.039062 -106.800781 123.460938 -108.988281 123.046875 -111.46875 C 122.929688 -112.1875 122.738281 -112.71875 122.472656 -113.058594 C 122.128906 -113.503906 121.503906 -113.945312 120.59375 -114.378906 L 127.015625 -142.695312 L 212.824219 -142.695312 L 217.230469 -138.019531 C 227.535156 -127.089844 234.613281 -115.441406 238.472656 -103.0625 C 242.246094 -90.960938 243.570312 -79.148438 242.449219 -67.625 C 241.339844 -56.195312 238.359375 -45.796875 233.511719 -36.425781 C 225.570312 -21.179688 215.21875 -9.789062 202.449219 -2.261719 C 190.46875 4.804688 176.910156 9.472656 161.769531 11.742188 C 147.808594 13.839844 132.914062 14.886719 117.089844 14.886719 L -11.3125 14.886719 Z M 18.457031 0 L 3.574219 0 L 3.574219 -14.886719 L 117.089844 -14.886719 C 131.433594 -14.886719 144.855469 -15.824219 157.355469 -17.699219 C 168.675781 -19.394531 178.667969 -22.796875 187.328125 -27.90625 C 195.199219 -32.546875 201.78125 -39.945312 207.070312 -50.101562 C 210.160156 -56.078125 212.078125 -62.878906 212.820312 -70.503906 C 213.550781 -78.035156 212.628906 -85.933594 210.050781 -94.207031 C 207.554688 -102.207031 202.730469 -110.003906 195.570312 -117.597656 L 206.398438 -127.808594 L 206.398438 -112.921875 L 127.015625 -112.921875 L 127.015625 -127.808594 L 133.4375 -141.238281 C 138.613281 -138.761719 142.816406 -135.429688 146.042969 -131.246094 C 149.351562 -126.957031 151.476562 -121.996094 152.414062 -116.363281 C 154.117188 -106.140625 152.160156 -96.820312 146.542969 -88.394531 C 143.25 -83.453125 138.890625 -79.75 133.460938 -77.289062 C 128.664062 -75.113281 123.207031 -74.023438 117.089844 -74.023438 C 106.265625 -74.023438 97.472656 -77.523438 90.710938 -84.519531 C 84.929688 -90.5 81.203125 -97.238281 79.539062 -104.734375 L 79.464844 -105.070312 L 79.40625 -105.414062 C 77.609375 -115.746094 80.058594 -125.34375 86.761719 -134.207031 C 93.839844 -143.570312 103.6875 -148.25 116.296875 -148.25 L 229.421875 -148.25 L 229.421875 -133.367188 L 214.535156 -133.367188 L 214.535156 -223.070312 L 229.421875 -223.070312 L 229.421875 -208.183594 L 116.296875 -208.183594 C 102.011719 -208.183594 88.710938 -207.191406 76.402344 -205.199219 C 65.320312 -203.410156 55.550781 -199.820312 47.089844 -194.4375 C 39.144531 -189.382812 32.476562 -181.671875 27.078125 -171.3125 C 22.480469 -162.53125 20.394531 -152.179688 20.828125 -140.257812 C 21.253906 -128.632812 25.253906 -117.40625 32.835938 -106.574219 L 20.640625 -98.039062 L 20.640625 -112.925781 L 55.597656 -112.925781 L 60.015625 -106.296875 C 60.457031 -105.636719 60.960938 -104.90625 61.53125 -104.113281 C 62.644531 -102.550781 63.640625 -100.894531 64.515625 -99.140625 L 75.289062 -77.597656 L 3.574219 -77.597656 L 3.574219 -92.484375 L 18.457031 -92.484375 Z M 18.457031 0 "/></g></g></g><g fill="#171616" fill-opacity="1"><g transform="translate(13.766752, 378.511646)"><g><path d="M 3.578125 0 L 3.578125 -92.484375 L 51.203125 -92.484375 C 50.671875 -93.546875 50.070312 -94.535156 49.40625 -95.453125 C 48.75 -96.378906 48.15625 -97.242188 47.625 -98.046875 L 20.640625 -98.046875 C 11.378906 -111.273438 6.484375 -125.164062 5.953125 -139.71875 C 5.421875 -154.269531 8.066406 -167.101562 13.890625 -178.21875 C 20.503906 -190.914062 28.90625 -200.503906 39.09375 -206.984375 C 49.28125 -213.472656 60.921875 -217.773438 74.015625 -219.890625 C 87.117188 -222.003906 101.210938 -223.0625 116.296875 -223.0625 L 229.421875 -223.0625 L 229.421875 -133.359375 L 116.296875 -133.359375 C 108.617188 -133.359375 102.726562 -130.644531 98.625 -125.21875 C 94.53125 -119.800781 93.015625 -114.050781 94.078125 -107.96875 C 95.128906 -103.195312 97.570312 -98.828125 101.40625 -94.859375 C 105.25 -90.890625 110.476562 -88.90625 117.09375 -88.90625 C 125.03125 -88.90625 130.71875 -91.484375 134.15625 -96.640625 C 137.59375 -101.804688 138.78125 -107.5625 137.71875 -113.90625 C 136.664062 -120.257812 133.097656 -124.894531 127.015625 -127.8125 L 206.40625 -127.8125 C 215.132812 -118.550781 221.085938 -108.828125 224.265625 -98.640625 C 227.441406 -88.453125 228.566406 -78.59375 227.640625 -69.0625 C 226.710938 -59.539062 224.265625 -50.941406 220.296875 -43.265625 C 213.679688 -30.566406 205.210938 -21.171875 194.890625 -15.078125 C 184.566406 -8.992188 172.789062 -4.957031 159.5625 -2.96875 C 146.332031 -0.988281 132.175781 0 117.09375 0 Z M 3.578125 0 "/></g></g></g></g></g></svg>